<?xml version="1.0" encoding="UTF-8"?>
<svg id="Layer_1" xmlns="http://www.w3.org/2000/svg" version="1.1" viewBox="0 0 155.13 159.41">
  <!-- Generator: Adobe Illustrator 30.2.1, SVG Export Plug-In . SVG Version: 2.1.1 Build 1)  -->
  <defs>
    <style>
      .st0 {
        fill: lime;
      }

      .st1 {
        fill: #fff;
      }

      .st2 {
        fill: #85f735;
      }
    </style>
  </defs>
  <path class="st0" d="M27.49,137.2V17.83l28.89,19.26v81.08l-28.89,19.03ZM31.49,25.3v104.47l20.89-13.76V39.23l-20.89-13.93Z"/>
  <path class="st1" d="M27.49,137.2V17.83l28.89,19.26v81.08l-28.89,19.03ZM31.49,25.3v104.47l20.89-13.76V39.23l-20.89-13.93Z"/>
  <g>
    <polygon class="st2" points="5.39 55.29 5.39 59.89 11.6 63.42 5.39 60.7 5.39 65.07 9.92 67.04 5.39 65.62 5.39 77.59 6.3 77.69 5.39 77.68 5.39 82.23 6.3 82.22 5.39 82.32 5.39 94.29 9.91 92.87 5.39 94.84 5.39 99.2 11.61 96.49 5.39 100.02 5.39 104.62 28.49 91.51 28.49 68.4 5.39 55.29"/>
    <polygon class="st2" points="141.46 86.66 148.14 80 148.1 79.95 148.14 79.91 141.46 73.25 138.64 76.09 138.74 76.19 138.72 76.21 140.4 77.89 115.49 77.95 86.25 77.88 125.12 73.82 124.71 69.84 80.74 74.44 140.88 61.93 139.5 64.02 142.83 66.24 147.99 58.46 140.13 53.25 137.92 56.58 140.08 58.01 82.79 69.92 125.98 56.33 124.78 52.51 80.24 66.54 140.34 40.3 139.4 42.68 143.13 44.14 146.53 35.46 137.75 32.01 136.29 35.74 138.66 36.67 79.93 62.31 127.17 35.49 125.19 32.01 77.27 59.21 141.69 13.35 141.27 15.86 145.21 16.53 146.77 7.33 137.47 5.76 136.8 9.7 139.33 10.13 40.92 79.97 139.33 149.78 136.8 150.21 137.47 154.15 146.77 152.57 145.21 143.38 141.27 144.05 141.69 146.55 77.27 100.69 125.19 127.9 127.17 124.42 79.93 97.6 138.66 123.24 136.29 124.17 137.75 127.89 146.53 124.45 143.13 115.77 139.4 117.23 140.34 119.61 80.24 93.37 124.78 107.39 125.98 103.58 82.79 89.99 140.08 101.9 137.92 103.33 140.13 106.66 147.99 101.45 142.83 93.67 139.5 95.89 140.88 97.98 80.74 85.47 124.71 90.07 125.12 86.09 86.24 82.03 115.49 81.95 140.4 82.02 138.72 83.7 138.74 83.72 138.64 83.82 141.46 86.66"/>
  </g>
</svg>