<?xml version="1.0" encoding="UTF-8"?>
<svg id="Layer_1" xmlns="http://www.w3.org/2000/svg" version="1.1" viewBox="0 0 960.07 142.81">
  <!-- Generator: Adobe Illustrator 29.6.1, SVG Export Plug-In . SVG Version: 2.1.1 Build 9)  -->
  <defs>
    <style>
      .st0 {
        fill: #86f834;
      }
    </style>
  </defs>
  <g>
    <polygon class="st0" points="880.67 129.74 929.1 129.74 929.1 129.74 880.67 129.74"/>
    <polygon class="st0" points="880.67 16.2 929.1 16.2 929.1 16.2 880.67 16.2"/>
    <path class="st0" d="M944.52,26.95c0-5.93-4.78-10.75-10.68-10.75h-57.91c-5.9,0-10.68,4.81-10.68,10.75,0,0-.01,47.71,0,48.64v43.41c0,5.93,4.78,10.75,10.68,10.75h57.91c5.9,0,10.68-4.81,10.68-10.75V26.95Z"/>
  </g>
  <path class="st0" d="M391.95,16.2h37.85c31.35,0,56.77,25.42,56.77,56.77h0c0,31.35-25.42,56.77-56.77,56.77h-37.85c-31.35,0-56.77-25.42-56.77-56.77h0c0-31.35,25.42-56.77,56.77-56.77Z"/>
  <path class="st0" d="M233.58,16.2h37.85c31.35,0,56.77,25.42,56.77,56.77h0c0,31.35-25.42,56.77-56.77,56.77h-37.85c-31.35,0-56.77-25.42-56.77-56.77h0c0-31.35,25.42-56.77,56.77-56.77Z"/>
  <path class="st0" d="M161.67,80.97h-50.16c-5.93,0-10.75-4.81-10.75-10.75V26.95c0-5.93-4.81-10.75-10.75-10.75H31.77c-5.93,0-10.75,4.81-10.75,10.75v92.04c0,5.93,4.81,10.75,10.75,10.75h129.91c5.93,0,10.75-4.81,10.75-10.75v-27.29c0-5.93-4.81-10.75-10.75-10.75v.02Z"/>
  <path class="st0" d="M631.73,16.2h-130.03c-5.9,0-10.68,4.81-10.68,10.75v27.29c0,5.93,4.78,10.75,10.68,10.75h14.73c5.85,0,10.57,4.74,10.65,10.61v43.41c0,5.93,4.78,10.75,10.68,10.75h57.91c5.9,0,10.68-4.81,10.68-10.75v-43.41c.08-5.87,4.8-10.61,10.65-10.61h14.73c5.9,0,10.68-4.81,10.68-10.75v-27.29c0-5.93-4.78-10.75-10.68-10.75Z"/>
  <path class="st0" d="M655.46,57.64h32.26c6.72,0,12.17,5.45,12.17,12.17v6.34c0,6.72-5.45,12.17-12.17,12.17h-32.26c-6.72,0-12.17-5.45-12.17-12.17v-6.34c0-6.72,5.45-12.17,12.17-12.17Z"/>
  <path class="st0" d="M848.08,72.98h-57.59c-2.38,0-4.33-1.95-4.33-4.33v-.32c0-2.12,1.72-3.84,3.84-3.84h58.04c5.64,0,10.22-4.58,10.22-10.22v-27.84c0-5.64-4.58-10.22-10.22-10.22h-130.95c-5.64,0-10.22,4.58-10.22,10.22v93.11c0,5.64,4.58,10.22,10.22,10.22h58.84c5.64,0,10.22-4.58,10.22-10.22v-12.06c0-5.64,4.58-10.22,10.22-10.22h31.6v-.04h20.12c5.64,0,10.22-4.58,10.22-10.23v-3.79c0-5.64-4.58-10.22-10.22-10.22h0Z"/>
</svg>