<?xml version="1.0" encoding="UTF-8"?>
<svg id="Layer_1" xmlns="http://www.w3.org/2000/svg" version="1.1" viewBox="0 0 960.07 142.81">
  <!-- Generator: Adobe Illustrator 29.6.1, SVG Export Plug-In . SVG Version: 2.1.1 Build 9)  -->
  <g>
    <rect x="880.67" y="129.74" width="48.43" height="0"/>
    <rect x="880.67" y="16.2" width="48.43" height="0"/>
    <path d="M944.52,26.95c0-5.93-4.78-10.75-10.68-10.75h-4.74s-48.43,0-48.43,0h0s-4.71,0-4.71,0h-.03c-5.9,0-10.68,4.81-10.68,10.75,0,0-.01,47.71,0,48.64v43.41c0,5.93,4.78,10.75,10.68,10.75h4.74s48.43,0,48.43,0h0s4.71,0,4.71,0h.03c5.9,0,10.68-4.81,10.68-10.75V26.95Z"/>
  </g>
  <rect x="335.18" y="16.2" width="151.39" height="113.54" rx="56.77" ry="56.77"/>
  <rect x="176.81" y="16.2" width="151.39" height="113.54" rx="56.77" ry="56.77"/>
  <path d="M161.67,80.97h-50.16c-5.93,0-10.75-4.81-10.75-10.75V26.95c0-5.93-4.81-10.75-10.75-10.75H31.77c-5.93,0-10.75,4.81-10.75,10.75v92.04c0,5.93,4.81,10.75,10.75,10.75h53.51s76.4,0,76.4,0c5.93,0,10.75-4.81,10.75-10.75v-27.29c0-5.93-4.81-10.75-10.75-10.75Z"/>
  <path d="M631.73,16.2h-40.8s-48.43,0-48.43,0h0s-40.8,0-40.8,0c-5.9,0-10.68,4.81-10.68,10.75v27.29c0,5.93,4.78,10.75,10.68,10.75h14.73c5.85,0,10.57,4.74,10.65,10.61v43.41c0,5.93,4.78,10.75,10.68,10.75h57.91c5.9,0,10.68-4.81,10.68-10.75v-43.41c.08-5.87,4.8-10.61,10.65-10.61h14.73c5.9,0,10.68-4.81,10.68-10.75v-27.29c0-5.93-4.78-10.75-10.68-10.75Z"/>
  <path d="M655.46,57.64h32.26c6.72,0,12.17,5.45,12.17,12.17v6.34c0,6.72-5.45,12.17-12.17,12.17h-32.26c-6.72,0-12.17-5.45-12.17-12.17v-6.34c0-6.72,5.45-12.17,12.17-12.17Z"/>
  <path d="M848.08,72.98h-57.59c-2.38,0-4.33-1.95-4.33-4.33v-.32c0-2.12,1.72-3.84,3.84-3.84h58.04c5.64,0,10.22-4.58,10.22-10.22v-27.84c0-5.64-4.58-10.22-10.22-10.22h-130.95c-5.64,0-10.22,4.58-10.22,10.22v93.11c0,5.64,4.58,10.22,10.22,10.22h58.84c5.64,0,10.22-4.58,10.22-10.22v-12.06c0-5.64,4.58-10.22,10.22-10.22h31.6v-.04h20.12c5.64,0,10.22-4.58,10.22-10.23v-3.79c0-5.64-4.58-10.22-10.22-10.22Z"/>
</svg>