<?xml version="1.0" encoding="UTF-8"?>
<svg id="Layer_1" xmlns="http://www.w3.org/2000/svg" version="1.1" viewBox="0 0 149.87 161.67">
  <!-- Generator: Adobe Illustrator 30.2.1, SVG Export Plug-In . SVG Version: 2.1.1 Build 1)  -->
  <defs>
    <style>
      .st0 {
        fill: #fff;
      }

      .st1 {
        fill: #85f735;
      }
    </style>
  </defs>
  <path class="st1" d="M27.99,59.72H5.9v-22.09h22.09v22.09ZM9.9,55.72h14.09v-14.09h-14.09v14.09Z"/>
  <path class="st1" d="M41.89,33.2h-22.09V11.11h22.09v22.09ZM23.8,29.2h14.09v-14.09h-14.09v14.09Z"/>
  <path class="st1" d="M56.51,72.16h-22.09v-22.09h22.09v22.09ZM38.42,68.16h14.09v-14.09h-14.09v14.09Z"/>
  <path class="st1" d="M70.67,27.57h-22.09V5.48h22.09v22.09ZM52.58,23.57h14.09v-14.09h-14.09v14.09Z"/>
  <path class="st1" d="M85.11,51.18h-22.09v-22.09h22.09v22.09ZM67.02,47.18h14.09v-14.09h-14.09v14.09Z"/>
  <path class="st1" d="M99.1,75.16h-22.09v-22.09h22.09v22.09ZM81.01,71.16h14.09v-14.09h-14.09v14.09Z"/>
  <path class="st0" d="M137.56,99.98l6.6-6.6-6.67-6.67-2.83,2.83,1.8,1.8h-46.52v-9.98h46.59l-1.8,1.8,2.83,2.83,6.6-6.6-6.67-6.67-2.83,2.83,1.8,1.81h-46.52v-8.55c1.86-.75,3.18-2.57,3.18-4.7,0-2.8-2.27-5.07-5.07-5.07s-5.07,2.27-5.07,5.07c0,2.04,1.22,3.79,2.96,4.6v8.65h-9.99v-32.53c1.86-.75,3.18-2.57,3.18-4.7,0-2.8-2.27-5.07-5.07-5.07s-5.07,2.27-5.07,5.07c0,2.04,1.22,3.79,2.96,4.6v32.63h-10.53V21.25c1.91-.73,3.27-2.56,3.27-4.72,0-2.8-2.27-5.07-5.07-5.07s-5.07,2.27-5.07,5.07c0,2.01,1.18,3.73,2.87,4.55v56.29h-10.17v-11.52c1.91-.73,3.27-2.56,3.27-4.72,0-2.8-2.27-5.07-5.07-5.07s-5.07,2.27-5.07,5.07c0,2.01,1.18,3.73,2.87,4.55v11.7h-10.53V26.85c1.86-.75,3.18-2.57,3.18-4.7,0-2.8-2.27-5.07-5.07-5.07s-5.07,2.27-5.07,5.07c0,2.04,1.21,3.79,2.95,4.59v50.43c-5.5-.93-9.7-5.71-9.7-11.47v-12.43c1.76-.8,2.98-2.56,2.98-4.61,0-2.8-2.27-5.07-5.07-5.07s-5.07,2.27-5.07,5.07c0,2.12,1.3,3.93,3.15,4.69v12.35c0,7.99,6.03,14.59,13.77,15.52.7,7.91,6.74,14.11,14.07,14.11h.46c.67,7.85,6.01,13.99,12.47,13.99h1.68c.57,7.96,5.16,13.99,10.93,13.99h3.59c.48,7.96,4.41,13.98,9.35,13.98h4.63c.4,9.19,4.13,13.99,7.82,13.99h42.78l-1.85,1.85,2.83,2.83,6.6-6.6-6.67-6.67-2.83,2.83,1.76,1.76h-42.61c-1.25,0-3.47-3.75-3.81-9.99h46.66l-1.92,1.92,2.83,2.83,6.6-6.6-6.67-6.67-2.83,2.83,1.69,1.69h-46.41v-9.98h46.68l-1.89,1.89,2.83,2.83,6.6-6.6-6.67-6.67-2.83,2.83,1.72,1.72h-46.44v-9.99h46.75l-1.96,1.96,2.83,2.83,6.6-6.6-6.67-6.67-2.83,2.83,1.65,1.65h-46.37v-9.99h46.6l-1.81,1.8,2.83,2.83ZM43.26,91.34h-.39c-5.1,0-9.32-4.35-10.03-9.98h10.42v9.98ZM57.43,105.33h-1.62c-4.3,0-7.85-4.35-8.45-9.99h10.07v9.99ZM57.43,91.34h-10.17v-9.98h10.17v9.98ZM71.96,119.31h-3.54c-3.45,0-6.41-4.43-6.91-9.99h10.45v9.99ZM71.96,105.33h-10.53v-9.99h10.53v9.99ZM71.96,91.34h-10.53v-9.98h10.53v9.98ZM85.94,133.3h-4.59c-2.33,0-4.91-4.17-5.33-9.98h9.92v9.98ZM85.94,119.31h-9.99v-9.99h9.99v9.99ZM85.94,105.33h-9.99v-9.99h9.99v9.99ZM85.94,91.34h-9.99v-9.98h9.99v9.98Z"/>
</svg>