<?xml version="1.0" encoding="UTF-8"?>
<svg id="Layer_1" xmlns="http://www.w3.org/2000/svg" version="1.1" viewBox="0 0 179.94 159.41">
  <!-- Generator: Adobe Illustrator 30.2.1, SVG Export Plug-In . SVG Version: 2.1.1 Build 1)  -->
  <defs>
    <style>
      .st0 {
        fill: #fff;
      }

      .st1 {
        fill: #85f735;
      }
    </style>
  </defs>
  <g>
    <path class="st1" d="M164.19,16.17h0c-.12-.01-.36-.02-.71,0h-26.53c-.13-.01-.32-.02-.55,0h-24.28c-.15-.02-.3-.02-.46,0h-43.74c-.15-.02-.3-.02-.45,0h-24.26c-.25-.02-.44-.01-.57,0h-26.55c-.34-.02-.57-.01-.7,0h0s-11.06,0-11.06,0v3.83h11.46c1.41.12,11.27,1.57,29.51,21.53,20.67,22.6,42.89,24.5,43.82,24.56l.13-1.78.02-.18.45-1.79s.03-.01.05-.01c.01,0,.02,0,.05.01l.47,1.83.14,1.91c.94-.07,23.15-1.97,43.82-24.56,17.93-19.6,27.71-21.38,29.42-21.53h11.56v-3.83h-11.06ZM97.58,59.09c2.2-3.75,4.68-9.51,7.05-18.35,4.37-16.29,7.04-19.99,7.73-20.73h17.27c-3.5,3.17-8.21,8.91-14.19,19.28-6.35,11.02-12.97,16.8-17.86,19.81ZM89.79,62.32c-.62-.3-6-3.44-11.14-22.59-2.56-9.55-4.79-16.02-6.85-19.74h35.97c-2.05,3.72-4.29,10.19-6.85,19.74-5.13,19.14-10.52,22.28-11.14,22.59ZM67.22,20c.69.74,3.36,4.44,7.73,20.73,2.37,8.85,4.85,14.6,7.05,18.35-4.89-3.01-11.51-8.79-17.86-19.81-5.97-10.36-10.69-16.1-14.18-19.28h17.26ZM48.14,38.94c-9.3-10.17-16.57-15.81-21.89-18.94h16.7c.76.15,6.75,1.9,17.86,21.19,4.34,7.53,8.81,12.79,12.89,16.46-7.48-3.33-16.7-9.01-25.57-18.71ZM89.74,62.35v-.02s.03,0,.03,0c-.01,0-.02.01-.03.02ZM89.8,62.33s.03,0,.03,0v.02s-.01,0-.03-.01ZM131.44,38.94c-8.83,9.66-18.05,15.34-25.53,18.67,4.07-3.67,8.53-8.92,12.85-16.42,11.11-19.29,17.1-21.04,17.86-21.19h16.7c-5.31,3.13-12.58,8.77-21.89,18.94Z"/>
    <path class="st1" d="M134.27,118.84c-20.67-22.6-42.89-24.5-43.82-24.57l-.14,1.81-.02.15-.45,1.79s-.03.01-.05.01c-.01,0-.02,0-.05-.01l-.47-1.83-.14-1.91c-.94.07-23.15,1.97-43.82,24.57-18,19.69-27.81,21.38-29.45,21.53H4.33v3.83h11.06,0c.07.01.16.01.29.01.11,0,.26,0,.42-.01h26.53c.07,0,.16.01.27.01.08,0,.18,0,.29-.01h24.36s.1.02.15.02c.04,0,.08-.02.12-.02h43.94s.08.02.12.02c.05,0,.1-.01.15-.02h24.36c.1,0,.2.01.29.01.11,0,.19,0,.27-.01h26.53c.17.01.31.01.43.01.13,0,.22,0,.29,0h0s11.06,0,11.06,0v-3.83h-11.56c-1.6-.14-11.36-1.79-29.42-21.53ZM100.93,120.63c2.57,9.56,4.8,16.02,6.86,19.74h-35.99c2.06-3.71,4.29-10.17,6.86-19.74,5.14-19.14,10.52-22.28,11.14-22.59.62.3,6,3.44,11.14,22.59ZM89.83,98.03v.02s-.03,0-.03,0c.01,0,.02-.01.03-.01ZM89.78,98.04s-.03,0-.03,0v-.02s.01,0,.03.02ZM48.14,121.43c8.83-9.66,18.05-15.34,25.53-18.68-4.07,3.67-8.53,8.92-12.85,16.42-11.1,19.27-17.09,21.04-17.86,21.19h-16.7c5.31-3.13,12.58-8.77,21.88-18.94ZM64.14,121.1c6.35-11.02,12.97-16.8,17.86-19.81-2.2,3.75-4.68,9.51-7.05,18.35-4.37,16.29-7.03,19.99-7.73,20.73h-17.27c3.5-3.17,8.22-8.91,14.19-19.27ZM112.36,140.37c-.69-.74-3.36-4.44-7.73-20.73-2.37-8.85-4.85-14.6-7.05-18.35,4.89,3.01,11.51,8.79,17.86,19.81,5.97,10.37,10.69,16.1,14.19,19.27h-17.27ZM136.62,140.37c-.77-.15-6.76-1.92-17.86-21.19-4.32-7.51-8.79-12.75-12.85-16.42,7.48,3.34,16.69,9.02,25.53,18.67,9.3,10.17,16.57,15.81,21.88,18.94h-16.7Z"/>
  </g>
  <path class="st0" d="M93.44,88.6l2.71-2.71-5.73-5.74,5.73-5.73-2.71-2.71-1.73,1.73V13.88c1.73-.74,2.94-2.46,2.94-4.46,0-2.68-2.18-4.86-4.86-4.86s-4.86,2.18-4.86,4.86c0,2,1.21,3.72,2.94,4.46v59.62l-1.73-1.73-2.71,2.71,5.73,5.73-5.73,5.74,2.71,2.71,1.73-1.73v59.6c-1.73.74-2.94,2.46-2.94,4.46,0,2.68,2.18,4.86,4.86,4.86s4.86-2.18,4.86-4.86c0-2-1.21-3.72-2.94-4.46v-59.67l1.73,1.73Z"/>
</svg>